<svg width="8" height="21" viewBox="0 0 8 21" fill="none" xmlns="http://www.w3.org/2000/svg">
<path d="M7.08039 1.06014C7.29039 1.06014 7.50039 1.06014 7.92039 1.06014V4.21014C7.71039 4.21014 7.29039 4.21014 6.87039 4.21014C6.45039 4.21014 6.03039 4.21014 5.82039 4.42014C5.61039 4.63014 5.61038 4.84014 5.61038 5.33014C5.61038 5.75014 5.61038 6.03014 5.61038 6.45014H7.92039V9.11014H5.61038V20.6601H2.0404V9.04014H0.150391V6.38014H2.0404V5.47014C2.0404 3.93014 2.25039 2.81014 2.67039 2.32014C3.30039 1.41014 4.56039 0.990143 6.45039 0.990143C6.66039 1.06014 6.87039 1.06014 7.08039 1.06014Z" fill="#FCF9F9"/>
</svg>
