<svg aria-hidden="true" style="position: absolute; width: 0; height: 0; overflow: hidden;" version="1.1" xmlns="http://www.w3.org/2000/svg" xmlns:xlink="http://www.w3.org/1999/xlink">
<defs>
<symbol id="icon-yellow-star" viewBox="0 0 32 32">
<path fill="#ecd979" style="fill: var(--color1, #ecd979)" d="M15.434 0.333c0.115-0.197 0.325-0.328 0.566-0.328s0.451 0.13 0.565 0.325l0.002 0.003 1.84 3.203c0.115 0.197 0.325 0.327 0.566 0.327 0.138 0 0.265-0.043 0.371-0.115l-0.002 0.001 3.081-2.107c0.103-0.071 0.231-0.114 0.368-0.114 0.346 0 0.628 0.268 0.652 0.608l0 0.002 0.239 3.643c0.023 0.342 0.306 0.61 0.652 0.61 0.036 0 0.071-0.003 0.106-0.009l-0.004 0 3.69-0.585c0.031-0.005 0.067-0.008 0.103-0.008 0.361 0 0.653 0.292 0.653 0.653 0 0.090-0.018 0.175-0.051 0.253l0.002-0.004-1.386 3.359c-0.031 0.074-0.049 0.159-0.049 0.249 0 0.296 0.197 0.545 0.466 0.626l0.005 0.001 3.555 1.036c0.274 0.082 0.47 0.331 0.47 0.627 0 0.193-0.084 0.367-0.218 0.487l-0.001 0.001-2.731 2.433c-0.135 0.12-0.219 0.294-0.219 0.488s0.084 0.368 0.218 0.487l0.001 0.001 2.731 2.433c0.134 0.12 0.218 0.294 0.218 0.487 0 0.296-0.196 0.545-0.466 0.626l-0.005 0.001-3.555 1.036c-0.274 0.082-0.471 0.331-0.471 0.627 0 0.090 0.018 0.176 0.051 0.254l-0.002-0.004 1.386 3.359c0.031 0.074 0.050 0.16 0.050 0.25 0 0.361-0.292 0.653-0.653 0.653-0.036 0-0.072-0.003-0.106-0.009l0.004 0-3.69-0.585c-0.031-0.005-0.066-0.008-0.103-0.008-0.346 0-0.628 0.268-0.652 0.608l-0 0.002-0.239 3.643c-0.023 0.342-0.306 0.611-0.652 0.611-0.138 0-0.266-0.043-0.371-0.116l0.002 0.001-3.081-2.107c-0.103-0.071-0.231-0.114-0.368-0.114-0.241 0-0.451 0.13-0.564 0.324l-0.002 0.003-1.84 3.203c-0.115 0.197-0.325 0.328-0.566 0.328s-0.451-0.13-0.565-0.325l-0.002-0.003-1.84-3.203c-0.115-0.197-0.325-0.327-0.566-0.327-0.138 0-0.265 0.043-0.371 0.115l0.002-0.001-3.081 2.107c-0.103 0.071-0.231 0.114-0.368 0.114-0.346 0-0.628-0.268-0.652-0.608l-0-0.002-0.239-3.643c-0.023-0.342-0.306-0.61-0.652-0.61-0.036 0-0.071 0.003-0.106 0.009l0.004-0-3.69 0.584c-0.031 0.005-0.067 0.008-0.103 0.008-0.361 0-0.653-0.292-0.653-0.653 0-0.090 0.018-0.175 0.051-0.253l-0.002 0.004 1.386-3.359c0.031-0.074 0.049-0.159 0.049-0.249 0-0.296-0.197-0.545-0.466-0.626l-0.005-0.001-3.555-1.035c-0.274-0.082-0.471-0.331-0.471-0.627 0-0.194 0.084-0.368 0.218-0.487l0.001-0.001 2.731-2.433c0.135-0.12 0.219-0.294 0.219-0.488s-0.084-0.368-0.218-0.487l-0.001-0.001-2.731-2.433c-0.134-0.12-0.218-0.294-0.218-0.487 0-0.296 0.196-0.545 0.466-0.626l0.005-0.001 3.555-1.036c0.274-0.082 0.471-0.331 0.471-0.627 0-0.090-0.018-0.176-0.051-0.254l0.002 0.004-1.386-3.359c-0.031-0.074-0.050-0.16-0.050-0.25 0-0.361 0.292-0.653 0.653-0.653 0.036 0 0.072 0.003 0.106 0.009l-0.004-0 3.69 0.585c0.031 0.005 0.066 0.008 0.103 0.008 0.346 0 0.629-0.268 0.652-0.608l0-0.002 0.239-3.643c0.023-0.342 0.306-0.611 0.652-0.611 0.138 0 0.266 0.043 0.371 0.116l-0.002-0.001 3.080 2.107c0.103 0.071 0.231 0.114 0.368 0.114 0.241 0 0.451-0.13 0.564-0.324l0.002-0.003 1.84-3.204z"></path>
</symbol>
<symbol id="icon-arrow-btn" viewBox="0 0 48 32">
<path fill="#ecd979" style="fill: var(--color1, #ecd979)" d="M40.166 18.934c-0.26-1.954-0.43-3.7-0.506-5.234-0.034-1.56 0.026-2.91 0.178-4.050l-37.94 21.904-1.798-3.108 37.942-21.906c-1.441-0.662-2.635-1.311-3.782-2.027l0.142 0.083c-1.689-1.102-3.069-2.083-4.413-3.11l0.177 0.129 2.278-1.316c4.812 2.024 9.214 3.036 13.204 3.034l0.77 1.332c-2.024 3.406-3.35 7.724-3.974 12.954l-2.28 1.314z"></path>
</symbol>
<symbol id="icon-x" viewBox="0 0 32 32">
<path stroke-linejoin="round" stroke-linecap="round" stroke-miterlimit="4" stroke-width="2.1818" d="M24 8l-16 16"></path>
<path stroke-linejoin="round" stroke-linecap="round" stroke-miterlimit="4" stroke-width="2.1818" d="M8 8l16 16"></path>
</symbol>
<symbol id="icon-instagram" stroke="none" fill="none" viewBox="0 0 32 32">
<path d="M31.969 9.408c-0.075-1.7-0.35-2.869-0.744-3.882-0.406-1.075-1.031-2.038-1.85-2.838-0.8-0.813-1.769-1.444-2.832-1.844-1.019-0.394-2.182-0.669-3.882-0.744-1.713-0.081-2.257-0.1-6.601-0.1s-4.888 0.019-6.595 0.094c-1.7 0.075-2.869 0.35-3.882 0.744-1.075 0.406-2.038 1.031-2.838 1.85-0.813 0.8-1.444 1.769-1.844 2.832-0.394 1.019-0.669 2.182-0.744 3.882-0.081 1.713-0.1 2.257-0.1 6.601s0.019 4.888 0.094 6.595c0.075 1.7 0.35 2.869 0.744 3.882 0.406 1.075 1.038 2.038 1.85 2.838 0.8 0.813 1.769 1.444 2.832 1.844 1.019 0.394 2.182 0.669 3.882 0.744 1.706 0.075 2.25 0.094 6.595 0.094s4.888-0.019 6.595-0.094c1.7-0.075 2.869-0.35 3.882-0.744 2.151-0.831 3.851-2.532 4.682-4.682 0.394-1.019 0.669-2.182 0.744-3.882 0.075-1.707 0.094-2.25 0.094-6.595s-0.006-4.888-0.081-6.595zM29.087 22.473c-0.069 1.563-0.331 2.407-0.55 2.969-0.538 1.394-1.644 2.5-3.038 3.038-0.563 0.219-1.413 0.481-2.969 0.55-1.688 0.075-2.194 0.094-6.464 0.094s-4.782-0.019-6.464-0.094c-1.563-0.069-2.407-0.331-2.969-0.55-0.694-0.256-1.325-0.663-1.838-1.194-0.531-0.519-0.938-1.144-1.194-1.838-0.219-0.563-0.481-1.413-0.55-2.969-0.075-1.688-0.094-2.194-0.094-6.464s0.019-4.782 0.094-6.464c0.069-1.563 0.331-2.407 0.55-2.969 0.256-0.694 0.663-1.325 1.2-1.838 0.519-0.531 1.144-0.938 1.838-1.194 0.563-0.219 1.413-0.481 2.969-0.55 1.688-0.075 2.194-0.094 6.464-0.094 4.276 0 4.782 0.019 6.464 0.094 1.563 0.069 2.407 0.331 2.969 0.55 0.694 0.256 1.325 0.662 1.838 1.194 0.531 0.519 0.938 1.144 1.194 1.838 0.219 0.563 0.481 1.413 0.55 2.969 0.075 1.688 0.094 2.194 0.094 6.464s-0.019 4.77-0.094 6.458z" fill="#FCF9F9"></path>
<path d="M16.059 7.783c-4.538 0-8.22 3.682-8.22 8.22s3.682 8.22 8.22 8.22c4.538 0 8.22-3.682 8.22-8.22s-3.682-8.22-8.22-8.22zM16.059 21.335c-2.944 0-5.332-2.388-5.332-5.332s2.388-5.332 5.332-5.332c2.944 0 5.332 2.388 5.332 5.332s-2.388 5.332-5.332 5.332z"></path>
<path d="M26.524 7.458c0 1.060-0.859 1.919-1.919 1.919s-1.919-0.859-1.919-1.919c0-1.060 0.859-1.919 1.919-1.919s1.919 0.859 1.919 1.919z"></path>
</symbol>
</defs>
</svg>
