<svg xmlns="http://www.w3.org/2000/svg" version="1.1" xmlns:xlink="http://www.w3.org/1999/xlink" xmlns:svgjs="http://svgjs.com/svgjs" width="1000" height="1000"><rect width="1000" height="1000" rx="200" ry="200" fill="#fff76b"></rect><g transform="matrix(1,0,0,1,0,0)"><svg xmlns="http://www.w3.org/2000/svg" version="1.1" xmlns:xlink="http://www.w3.org/1999/xlink" xmlns:svgjs="http://svgjs.com/svgjs" width="704.000000pt" height="704.000000pt"><svg version="1.0" xmlns="http://www.w3.org/2000/svg" width="704.000000pt" height="704.000000pt" viewBox="0 0 704.000000 704.000000" preserveAspectRatio="xMidYMid meet">
<metadata>
Created by potrace 1.14, written by Peter Selinger 2001-2017
</metadata>
<g transform="translate(0.000000,704.000000) scale(0.100000,-0.100000)" fill="#000000" stroke="none">
<path d="M5 6533 c1 -60 3 -110 4 -113 1 -4 136 -5 201 -1 12 1 15 20 15 111
l0 110 -111 0 -110 0 1 -107z"></path>
<path d="M884 6530 c1 -67 -3 -110 -9 -111 -5 0 -55 -2 -110 -2 l-100 -2 -2
-95 c0 -52 -2 -102 -2 -110 -1 -13 -18 -15 -102 -15 -55 0 -103 -2 -108 -5 -4
-3 -7 -52 -7 -110 l0 -105 -98 -2 c-54 -1 -104 -4 -111 -7 -9 -3 -12 -33 -11
-110 l2 -106 -111 0 -111 0 0 -334 0 -333 110 1 110 1 1 110 0 110 108 0 c66
-1 107 3 108 10 1 5 2 55 3 110 l1 100 105 0 c58 0 107 3 110 7 3 3 5 54 4
112 l-1 106 109 0 c96 0 108 2 109 18 1 9 1 59 1 110 l0 92 97 1 c53 1 102 1
109 0 13 -2 13 -2 15 134 l2 90 100 1 c55 1 105 2 110 3 6 0 10 44 9 110 l-1
108 109 -1 108 -1 1 63 c1 79 1 128 0 147 -1 13 -45 15 -330 15 l-328 0 1
-110z"></path>
<path d="M2639 6613 c0 -34 0 -553 0 -605 l1 -38 88 1 c143 1 134 3 132 -33
-1 -18 -2 -68 -1 -110 l1 -78 109 0 109 0 -1 -106 c-2 -86 1 -107 13 -113 13
-5 84 -6 186 -2 l22 1 -2 333 -1 332 -102 0 c-56 0 -104 3 -108 7 -4 3 -7 53
-8 110 l-2 103 -105 1 -105 1 -3 111 -3 112 -109 0 -110 0 -1 -27z"></path>
<path d="M3959 6633 c0 -4 -2 -55 -2 -112 l-2 -105 -105 1 c-58 0 -107 -3
-110 -7 -3 -5 -4 -55 -4 -112 l2 -103 -109 0 c-60 0 -109 -2 -110 -5 -7 -38
-2 -653 5 -658 18 -11 206 -8 210 4 2 6 4 51 4 100 0 49 1 95 1 102 1 9 30 12
109 12 l108 0 0 110 -1 110 50 1 c28 0 77 1 110 2 l60 2 0 330 0 330 -107 3
c-60 1 -108 -1 -109 -5z"></path>
<path d="M5274 6530 c0 -104 1 -110 20 -111 12 -1 61 -2 111 -3 l89 -1 0 -110
-1 -111 111 1 111 1 0 -111 0 -110 108 0 107 0 1 -25 c0 -14 1 -64 1 -112 l-1
-88 110 0 c97 0 109 -2 110 -17 1 -10 1 -58 1 -108 0 -49 3 -92 8 -95 4 -3 55
-4 112 -4 l103 1 0 -111 0 -111 108 0 107 0 0 -111 0 -111 110 0 c109 -1 110
-1 110 23 0 13 0 152 0 309 0 157 0 296 0 310 l0 25 -111 0 -110 0 1 63 c1 34
1 85 1 112 l-1 50 -110 -2 -109 -2 2 109 c2 90 -1 110 -13 113 -8 2 -58 3
-111 2 l-95 -1 -1 103 c-1 56 -4 106 -7 111 -3 6 -47 10 -98 10 -51 0 -98 0
-104 1 -8 1 -11 35 -11 109 l1 107 -330 3 -330 2 0 -110z"></path>
<path d="M6590 6530 c0 -126 -17 -112 132 -113 l87 0 3 -111 3 -111 95 -1 c52
0 102 1 110 3 13 3 15 35 12 224 l-3 219 -219 0 -220 0 0 -110z"></path>
<path d="M1798 5972 l-36 -3 -1 -110 0 -109 109 0 110 0 0 -110 c0 -81 3 -110
13 -111 6 0 55 -1 107 -2 l95 -1 5 -111 5 -110 328 0 328 0 -3 110 -3 110 -95
1 c-52 1 -102 2 -110 3 -13 1 -14 19 -12 111 l3 110 -110 0 -111 0 0 110 0
110 -27 1 c-102 2 -565 3 -595 1z"></path>
<path d="M4412 5969 c-14 -5 -17 -21 -18 -100 -1 -52 -2 -99 -3 -106 -1 -9
-33 -13 -108 -15 l-108 -3 1 -110 0 -110 -105 1 c-58 1 -108 -2 -111 -6 -3 -5
-5 -55 -5 -112 l0 -103 320 -1 c176 0 325 1 331 3 6 2 10 43 9 111 l-1 108
108 -1 c59 0 109 2 109 5 1 3 3 50 4 105 1 55 3 103 4 107 0 4 49 9 108 10
l107 3 1 108 1 107 -26 1 c-169 4 -605 3 -618 -2z"></path>
<path d="M1114 5075 c-10 -8 -12 -83 -11 -335 l2 -325 109 0 109 -1 0 -112 -1
-112 109 0 c80 0 109 -3 110 -12 0 -7 0 -57 -1 -110 l-1 -98 93 -1 c93 -1 120
0 126 6 7 7 4 646 -3 653 -4 4 -52 7 -108 7 l-102 1 -2 94 c-1 52 -2 103 -2
113 -1 15 -13 17 -110 17 l-110 0 2 95 c1 52 0 102 -3 111 -5 14 -22 17 -100
18 -51 1 -99 -3 -106 -9z"></path>
<path d="M3079 5080 c0 -3 -1 -53 -1 -112 l0 -108 -109 0 -109 0 -1 -87 c-1
-49 0 -98 0 -109 3 -27 -10 -30 -126 -29 -60 1 -93 -2 -94 -9 0 -6 0 -56 0
-111 l0 -101 -107 0 -107 1 -3 -113 -3 -112 -109 0 -110 0 0 -110 0 -110 -110
0 -109 0 -3 -112 -3 -112 -106 0 -107 0 -1 -33 c-2 -46 -2 -50 1 -123 l3 -65
218 -1 217 0 1 65 c0 36 0 86 -1 111 l-1 46 108 -1 108 0 5 110 5 110 40 2
c22 1 70 2 108 2 l67 1 0 110 0 109 108 3 107 3 5 110 5 110 108 0 107 0 -1
95 c0 52 0 102 0 111 1 13 18 15 110 15 l109 -1 0 222 c0 164 -3 223 -11 224
-57 4 -207 3 -208 -1z"></path>
<path d="M3522 5080 c-9 -7 -8 -428 1 -437 4 -4 54 -7 110 -8 l102 0 2 -105
c0 -58 2 -108 2 -111 1 -3 49 -5 109 -5 l107 0 0 -109 0 -110 110 -5 110 -5 0
-103 c0 -57 2 -105 6 -107 3 -2 53 -5 110 -6 l105 -1 -1 -97 c-1 -53 1 -103 3
-111 3 -13 21 -16 108 -15 68 1 104 -2 105 -9 1 -6 2 -56 3 -111 l1 -99 217
-2 c190 -1 217 1 220 15 2 9 4 59 3 111 l0 95 -110 0 -110 1 0 109 0 110 -110
3 -111 3 1 107 1 107 -111 5 -110 5 0 105 c0 85 -3 106 -15 111 -8 3 -58 5
-110 4 l-95 -1 0 110 0 111 -110 0 -109 1 -1 109 0 110 -110 3 -110 3 2 92 c4
141 11 132 -108 132 -55 0 -104 -2 -107 -5z"></path>
<path d="M5512 5080 c-17 -5 -19 -15 -18 -113 l1 -107 -106 0 c-77 0 -108 -4
-111 -12 -3 -7 -4 -57 -4 -111 1 -79 -2 -97 -14 -98 -8 -1 -58 -2 -110 -3
l-95 -1 0 -332 -1 -333 111 0 110 0 -1 110 0 110 108 0 c79 0 108 3 109 13 1
6 2 57 3 112 l1 99 100 2 c55 0 105 2 110 3 11 1 13 646 2 658 -8 7 -167 10
-195 3z"></path>
<path d="M444 4080 l0 -110 30 -1 c17 0 67 0 111 0 l81 1 -3 -110 c-2 -81 1
-110 10 -111 6 -1 53 -2 102 -3 50 0 95 -4 100 -8 6 -3 9 -50 9 -110 l-2 -103
329 0 c306 0 329 1 330 18 1 22 1 93 0 156 l-1 48 -107 -1 -108 -1 -1 110 -1
110 -109 2 -109 1 -1 109 -1 108 -330 3 -329 2 0 -110z"></path>
<path d="M5715 4178 c-2 -7 -4 -47 -3 -88 0 -41 0 -86 -1 -100 l-1 -25 -107 0
-108 0 0 -108 c0 -59 -2 -107 -5 -108 -3 0 -52 -1 -110 -2 l-105 -2 0 -110 -1
-110 328 -1 c323 0 328 1 329 21 1 11 1 61 1 110 l0 91 105 -1 c57 0 107 3
110 8 3 5 5 56 4 113 l-1 104 110 0 c81 0 110 3 111 13 1 19 1 181 0 195 -1 9
-73 12 -326 12 -252 0 -327 -3 -330 -12z"></path>
<path d="M6810 3860 c0 -60 -3 -110 -7 -111 -5 -1 -53 -2 -108 -3 l-100 -1 -3
-111 -3 -111 -87 1 c-143 3 -132 12 -131 -115 l1 -109 109 0 109 0 0 -110 c0
-126 -17 -112 133 -112 l87 0 0 -109 c0 -60 3 -110 8 -110 4 -1 51 -2 106 -3
84 -1 99 1 105 16 3 9 5 260 3 557 l-2 541 -110 0 -110 0 0 -110z"></path>
<path d="M0 3413 c0 -310 1 -333 18 -334 19 -1 183 -1 195 0 4 1 7 52 7 114
l0 112 112 0 112 0 0 103 c1 58 -3 107 -9 111 -5 4 -56 7 -112 6 l-102 -2 -3
111 -3 111 -107 1 -108 0 0 -333z"></path>
<path d="M3303 3737 c-3 -5 -6 -56 -6 -112 l0 -102 -99 1 c-54 1 -104 -1 -109
-5 -9 -5 -13 -95 -10 -191 l1 -28 109 0 110 0 -1 -105 c-1 -58 2 -108 5 -111
5 -5 147 -9 198 -5 13 1 16 17 15 109 l0 107 109 5 110 5 0 110 0 109 -105 2
c-58 1 -107 2 -110 3 -3 0 -5 49 -5 108 l0 108 -103 1 c-57 0 -105 -3 -109 -9z"></path>
<path d="M891 3300 c-4 -3 -8 -48 -8 -100 -1 -52 -2 -102 -2 -110 -1 -12 -19
-15 -109 -13 l-109 1 0 -111 1 -112 -110 0 -109 0 -1 -100 c0 -55 1 -105 3
-111 3 -8 97 -11 326 -9 177 1 324 3 327 3 3 1 5 50 5 109 l0 108 104 0 c89 0
105 2 110 17 3 10 5 60 4 111 l-1 94 104 0 c57 0 106 2 109 5 4 4 8 143 6 200
-1 16 -26 18 -322 20 -177 2 -324 1 -328 -2z"></path>
<path d="M1973 3302 l-212 -2 0 -110 c0 -77 4 -110 12 -111 7 -1 56 -1 110 -1
l97 0 0 -112 0 -111 108 0 107 0 5 -111 5 -111 90 0 c50 -1 98 -2 108 -2 15
-1 17 -13 17 -111 l0 -110 109 0 110 0 -1 -105 c-1 -58 1 -108 4 -111 3 -3 52
-6 109 -7 96 -2 104 -4 105 -22 1 -11 2 -61 3 -110 l1 -90 108 0 107 0 2 -90
c1 -49 2 -100 2 -111 1 -21 5 -22 110 -21 l109 1 0 223 -1 223 -111 -2 -111
-3 2 113 3 112 -110 0 -109 0 -3 112 -3 112 -110 0 -110 -1 0 111 0 111 -108
0 -107 0 0 112 0 112 -77 -1 c-43 0 -93 1 -110 1 l-33 1 0 109 c0 61 -3 111
-7 113 -5 2 -103 2 -220 0z"></path>
<path d="M4764 3300 l-149 -5 0 -102 c0 -56 -3 -105 -8 -109 -4 -4 -54 -7
-110 -6 l-103 1 1 -109 c1 -70 -3 -110 -9 -113 -6 -1 -55 -3 -108 -2 -61 0
-98 -3 -99 -10 -1 -5 -3 -50 -4 -100 -1 -49 -3 -95 -4 -101 -1 -7 -35 -11
-102 -10 -57 1 -104 -3 -108 -9 -4 -5 -7 -55 -6 -110 l0 -100 -109 -5 -110 -5
1 -80 c1 -44 0 -93 -3 -110 l-4 -30 -102 2 c-56 1 -105 -2 -108 -7 -4 -6 -5
-319 -1 -416 1 -21 5 -22 109 -20 l107 1 2 100 c1 55 2 105 2 110 1 7 40 10
102 10 55 0 104 2 108 5 4 3 8 52 7 110 l0 105 99 2 c55 1 105 2 111 2 8 1 11
34 10 111 l-2 110 107 0 c76 0 108 4 111 13 3 6 4 56 3 110 -1 81 1 97 14 98
9 1 50 1 91 0 123 -1 116 -8 115 114 -1 67 3 105 9 106 6 1 52 3 101 4 50 1
95 3 100 4 6 0 10 43 10 109 l0 107 100 1 c56 0 105 3 111 6 5 4 10 51 9 110
l0 103 -71 5 c-39 3 -138 3 -220 0z"></path>
<path d="M5287 3298 c-8 -5 -12 -45 -13 -113 -1 -100 0 -105 20 -106 12 0 61
-1 111 -2 l89 -2 0 -107 c0 -68 3 -108 10 -111 6 -2 55 -3 109 -2 l97 1 1 -26
c0 -14 1 -64 1 -111 l0 -86 329 0 329 0 1 41 c0 23 1 71 2 108 2 52 -1 68 -13
71 -8 2 -59 3 -112 3 l-97 -1 2 111 2 112 -100 0 c-55 0 -105 0 -111 1 -8 1
-11 37 -10 111 l1 110 -25 0 c-361 4 -614 3 -623 -2z"></path>
<path d="M1538 2745 l-3 -110 -105 -1 -105 -1 -2 -69 c-1 -38 -2 -88 -2 -111
l-1 -43 -109 0 -109 0 2 -332 1 -333 108 -1 c59 -1 107 1 108 5 0 3 1 53 2
111 l2 105 108 0 107 0 1 50 c1 27 1 78 0 112 l-1 61 82 0 c46 0 97 0 113 1
l30 1 -1 326 c-1 179 -5 328 -9 332 -3 4 -53 7 -110 7 l-104 0 -3 -110z"></path>
<path d="M5059 2855 c-1 0 -2 -150 -3 -332 l-2 -333 26 -1 c14 -1 63 -1 110
-1 l85 1 0 -112 0 -112 108 0 c66 1 107 -3 108 -10 1 -5 2 -55 3 -110 l1 -100
108 -1 c93 -2 107 0 108 15 0 9 1 158 2 331 l1 315 -110 5 -109 5 0 95 c0 52
-1 102 -3 110 -2 12 -22 15 -111 14 l-107 -1 0 111 1 111 -108 0 c-59 0 -108
0 -108 0z"></path>
<path d="M6 1961 c-2 -3 -2 -154 -2 -336 l1 -329 110 -1 109 0 2 -105 c1 -58
2 -107 3 -110 0 -3 48 -6 106 -5 66 0 105 -3 106 -10 1 -5 2 -50 4 -100 1 -49
3 -96 4 -103 1 -10 24 -13 103 -11 87 3 102 1 107 -14 3 -9 5 -59 4 -112 l-1
-95 111 0 112 0 -1 -102 c-1 -56 0 -107 2 -113 3 -7 110 -9 327 -8 177 0 324
2 327 2 4 1 4 116 0 209 0 9 -29 12 -108 12 l-109 0 0 105 c0 58 -2 108 -6
111 -3 3 -52 6 -109 7 l-103 2 0 105 c0 58 -3 107 -7 110 -4 3 -54 6 -111 5
l-104 -1 -1 91 c0 49 0 100 -1 111 -1 21 -5 22 -108 21 l-108 0 -1 106 c0 59
-3 109 -6 113 -3 3 -52 6 -109 7 l-104 2 0 103 c0 66 -4 105 -12 110 -6 4 -59
7 -117 6 -93 -1 -104 1 -97 15 6 13 8 178 2 201 -1 7 -212 7 -215 1z"></path>
<path d="M6594 1961 c-2 -2 -4 -53 -4 -112 l0 -108 -87 1 c-150 1 -133 15
-133 -115 l0 -114 -36 6 c-19 3 -69 5 -110 3 l-75 -4 1 -96 c1 -53 1 -104 1
-112 -1 -12 -20 -15 -108 -15 l-108 0 0 -108 c0 -64 -4 -108 -10 -108 -5 -1
-50 -3 -100 -4 -49 -1 -96 -3 -102 -4 -9 -1 -13 -28 -12 -98 1 -54 1 -104 0
-111 -1 -8 -19 -12 -58 -11 -32 1 -81 1 -109 0 l-51 -1 1 -110 1 -109 -110 -3
-110 -3 -1 -107 c0 -60 2 -108 5 -109 31 -5 636 -2 644 3 7 4 11 45 12 110 l0
103 108 3 c93 2 107 5 108 20 0 9 1 58 2 107 l2 90 108 3 107 3 1 32 c0 18 1
68 2 112 l2 80 100 1 c55 1 105 2 110 3 6 1 9 43 8 110 l-2 109 101 -1 c55 -1
104 0 109 3 7 5 11 236 9 571 l0 96 -106 -1 c-58 -1 -108 -3 -110 -5z"></path>
<path d="M2204 1741 c-2 -2 -4 -53 -4 -112 l0 -107 -110 1 -109 2 -3 -115 -3
-114 -107 0 -107 1 2 -111 2 -111 325 0 325 0 3 111 3 111 110 -1 110 -1 -1
50 c-1 28 -1 77 -1 111 l1 61 82 2 c45 1 85 4 90 7 4 3 8 1 8 -4 0 -6 9 -8 20
-5 18 5 20 14 20 114 0 106 -1 109 -22 110 -80 3 -630 3 -634 0z"></path>
<path d="M3962 1735 c-3 -5 -6 -56 -6 -112 l-1 -102 85 -1 c150 -1 135 11 135
-107 0 -56 4 -105 8 -110 5 -4 54 -8 110 -8 l102 0 0 -110 0 -110 323 0 c178
0 327 2 330 5 4 3 7 53 7 111 l0 106 -103 0 c-56 0 -106 4 -110 8 -4 3 -7 51
-7 105 0 55 -3 101 -6 104 -2 3 -52 6 -109 8 l-105 3 0 102 c0 56 -3 105 -8
109 -11 11 -638 11 -645 -1z"></path>
<path d="M3087 1520 c-8 -3 -12 -38 -12 -114 l0 -110 -107 1 c-94 1 -108 -1
-109 -15 0 -10 0 -60 1 -112 l1 -95 -106 0 c-59 1 -109 -3 -111 -7 -7 -10 -6
-646 0 -656 2 -4 51 -7 108 -7 l103 1 2 99 c1 55 2 106 3 113 0 9 29 12 109
12 l109 0 0 106 c0 58 3 108 6 111 3 3 52 5 109 4 l104 -2 0 336 c1 244 -2
335 -11 335 -100 4 -189 4 -199 0z"></path>
<path d="M3550 1522 l-35 -3 1 -332 1 -332 69 -2 c38 -1 88 -2 110 -2 l42 -1
0 -87 c-1 -148 -14 -132 110 -135 l107 -3 0 -105 c0 -73 4 -107 12 -110 10 -4
128 -5 193 -1 14 1 16 42 16 331 0 291 -2 330 -15 331 -9 1 -55 2 -103 3 -47
0 -90 4 -94 9 -4 4 -8 54 -8 110 l-1 102 -100 1 c-55 1 -104 2 -110 3 -6 1
-10 43 -9 107 1 76 -2 107 -11 110 -15 6 -128 10 -175 6z"></path>
<path d="M6827 852 c-15 -3 -17 -17 -17 -113 l0 -109 -110 0 -110 0 0 -109 c0
-78 4 -110 13 -113 6 -2 104 -3 217 -3 l205 1 3 224 2 225 -93 0 c-51 0 -100
-1 -110 -3z"></path>
<path d="M6 528 c0 -57 2 -107 2 -113 2 -8 122 -12 202 -6 13 1 16 19 15 109
l-1 107 -110 3 -110 3 2 -103z"></path>
</g>
</svg></svg></g></svg>